PathFileType	4	(X/Y/Z)	Patient4_TMGait_0pt5_01_right_43.trc.trc
DataRate	CameraRate	NumFrames	NumMarkers	Units	OrigDataRate	OrigDataStartFrame	OrigNumFrames
77.348066298342	77.348066298342	4	33	mm	77.348066298342	36	       141
Frame#	Time	L.ASIS			Sacral			L.Shoulder			Chest			R.Shoulder			Neck			R.ASIS			R.Thigh.Superior			R.Thigh.Lateral			R.Thigh.Inferior			R.Patella			L.Thigh.Superior			L.Thigh.Lateral			L.Thigh.Inferior			L.Patella			L.Shank.Superior			L.Shank.Lateral			L.Shank.Inferior			R.Shank.Superior			R.Shank.Lateral			R.Shank.Inferior			R.Heel			R.Midfoot.Superior			R.Midfoot.Lateral			R.Toe			L.Heel			L.Midfoot.Lateral			L.Midfoot.Superior			L.Toe			L.Elbow			L.Wrist			R.Elbow			R.Wrist			
		X1	Y1	Z1	X2	Y2	Z2	X3	Y3	Z3	X4	Y4	Z4	X5	Y5	Z5	X6	Y6	Z6	X7	Y7	Z7	X8	Y8	Z8	X9	Y9	Z9	X10	Y10	Z10	X11	Y11	Z11	X12	Y12	Z12	X13	Y13	Z13	X14	Y14	Z14	X15	Y15	Z15	X16	Y16	Z16	X17	Y17	Z17	X18	Y18	Z18	X19	Y19	Z19	X20	Y20	Z20	X21	Y21	Z21	X22	Y22	Z22	X23	Y23	Z23	X24	Y24	Z24	X25	Y25	Z25	X26	Y26	Z26	X27	Y27	Z27	X28	Y28	Z28	X29	Y29	Z29	X30	Y30	Z30	X31	Y31	Z31	X32	Y32	Z32	X33	Y33	Z33	

36	57.132500000000	857.290317345397	956.870645152598	306.970425470974	640.869348074661	998.127551546371	459.569706137771	806.781636335340	1430.798645776897	284.863795526043	908.513477256137	1362.146075403641	447.423003730662	819.681211350596	1430.703453463234	621.299702494580	802.522919664994	1491.217794100889	436.872795826772	866.201931624319	936.823731876374	581.925714827333	929.139580856624	748.166572107646	556.234408689056	857.076060599066	633.169741090374	612.153394882655	945.196894017701	589.175137140191	537.012250824161	955.609434188396	499.570785298134	543.596562155204	890.570495363558	734.736147911188	332.292774589946	798.548827243214	624.018451709058	266.163993329760	878.408880798377	536.207064085671	325.275222299867	867.516773010319	451.627387065258	323.630065540652	800.955502316576	393.695861284125	319.033037197265	663.653398283429	344.017505829700	269.015887300647	652.550195831538	218.867383032803	331.420713030563	932.160574375585	409.162488565489	549.467038101151	864.306122296477	300.864876248700	605.444050716452	916.846788827199	209.236465219124	546.776352743967	791.377575123832	42.170088149737	509.655434428647	961.209691613619	97.803027201881	552.147941000698	872.158377908743	36.347464116674	587.750264280591	1080.049609302062	46.435750085621	584.109825728678	463.256231447720	141.083338157792	370.035688598364	524.897927377491	104.811055731042	288.813815503387	627.460878161611	123.456216134500	310.277683945978	715.999295453284	32.788295587094	279.931137719862	800.640479741910	1078.016105022688	160.307239288112	1002.174242093791	912.386101390980	137.202812484875	734.993238843576	1093.487129508663	729.867379427984	768.954081536764	834.294179833654	735.865206457038	
37	57.145428571429	857.072366116247	957.756815572228	308.762059826058	641.376330387497	999.304832402437	462.351257005109	806.662661276933	1432.197902179420	287.939322076167	909.418990369975	1363.020775817914	449.652440228272	821.823519236176	1431.182245185803	624.307805590716	803.395100401336	1492.203217479346	440.204730529375	867.061720109497	937.800695716405	583.618063975801	927.520046634404	747.573484483460	559.093694083981	853.900288979509	633.525100946286	614.338312694882	941.677366719260	588.632346509583	539.281350673955	950.922667635682	499.113583055141	545.650977415616	895.527727034378	737.729498373432	333.804347579766	807.517293013299	624.675504007631	267.026111834072	890.388544345632	538.658296972774	325.517673613191	880.659639370152	452.876695465098	323.239453623094	812.303650761596	394.984416379160	319.238684688499	672.851083063594	349.902678861555	270.447473843864	658.495259620407	224.990585699093	332.601474831268	927.068515827970	408.945567517497	551.232602106134	858.576970111736	300.822845712134	606.662728874567	910.907001794442	209.133540391494	547.807505892657	784.932883109340	42.205137064475	509.929927759364	954.872220301806	97.799598066130	552.511807510853	865.723107999162	36.320693708714	587.970094621029	1073.647716759474	46.246629260529	584.321696575537	466.636381300374	154.910870321944	372.486765863100	526.096116340970	116.188771437861	290.589951719092	629.938091222746	129.512221390133	311.427926317728	713.311344797013	33.071280361142	279.887216179769	796.313583220230	1078.764288069091	165.050998776370	989.805885605642	903.367150583957	141.246475477938	745.135136178145	1091.442296780754	733.432742759678	790.548442097896	833.926708122379	738.412193645094	
38	57.158357142857	856.696528632088	958.502989663792	310.433940515166	641.637080970448	1000.454268014540	464.958063135896	806.367643354791	1433.499943257160	290.845687612321	910.198551845044	1363.770097825654	451.658145445971	823.918738003272	1431.519697227273	627.142288878480	804.189913766929	1493.093554133719	443.370473964552	867.655946764586	938.677347828753	585.158009557079	925.584892191073	746.964652244421	561.683434686119	850.523659029638	633.847050810432	616.405057291232	937.851100977745	588.070882048856	541.335257799814	945.924170715195	498.680206260552	547.555918971408	900.166825883566	740.898956184024	335.115655253034	816.040275423581	625.707239397728	267.680399180338	901.798269668374	541.591725290396	325.525193342656	893.396347393361	454.719743449423	322.744087946165	823.599451667623	396.701813225230	319.302644435430	682.287734534576	355.633773253922	271.827485953186	665.213420990563	230.979943906670	333.789095636976	921.752531470647	408.742408774376	552.874660136703	852.695427982045	300.768712318553	607.801404295210	904.873285953546	209.036899841271	548.779656730046	778.451673770546	42.249025885962	510.195492588296	948.513170391040	97.743683658227	552.853915698051	859.248304902654	36.275489830194	588.178221771680	1067.214507561182	45.979094864210	584.541728775722	471.394958525897	167.536483035346	375.131090557997	528.783225971648	126.895024692046	292.490187980098	633.630266621626	135.566638180765	312.628869703595	712.407110817028	33.814208086583	279.690997991141	791.820288555187	1079.554986980982	169.405528683057	976.812336786931	894.821376662947	145.308893874092	755.567220099659	1089.464924746729	736.885499124793	812.530923548653	834.172460428143	741.017436891626	
39	57.171285714286	856.173972146893	959.140530621435	312.015959449592	641.665031095942	1001.570350805022	467.378317797835	805.944652462172	1434.715579203314	293.564873118727	910.856867540506	1364.406444754903	453.447383448445	825.937791592820	1431.741426478042	629.783527035643	804.926430975153	1493.902484951468	446.343342773687	867.985446127690	939.454185387572	586.575830329247	923.429535419515	746.384038962441	563.961059225900	847.026986620100	634.141870217141	618.308964482955	933.814504601081	587.507097805951	543.150598953166	940.715265722243	498.282788829488	549.259656519962	904.402311231985	744.223552109101	336.265858828155	823.974771490955	627.122267338899	268.170901001175	912.471872812342	544.987201528434	325.335315718745	905.564052520878	457.151959199446	322.150959991032	834.714795663344	398.827147767626	319.227405897318	691.864152555989	360.991802872613	273.097586507087	672.747365056916	236.547430932698	334.895616047957	916.297604456034	408.560860641111	554.347975959375	846.733012871821	300.723061559662	608.828175426536	898.789170449385	208.954160586065	549.661077173620	771.945722928363	42.306679855467	510.444660332457	942.143249096167	97.654760950081	553.166231448217	852.747046130233	36.226738938191	588.371549430710	1060.758578832820	45.669626013199	584.760660428231	477.578991026768	178.330438218320	377.799247516241	533.129052642381	136.337882536967	294.387271284846	638.722711128627	141.266932896964	313.769640750409	713.721326821017	34.990774205815	279.333788669580	787.143045474876	1080.405925807146	173.356059574396	963.254667417697	886.849824812059	149.365546921100	766.321830148089	1087.589289523240	740.170761532031	834.818091844208	835.075063362268	743.590983760776	
